#!OML:ASF F:\VICON\USERDATA\INSTALL\rory3\rory3.ASF
:FULLY-SPECIFIED
:DEGREES
76
root 0.94363 17.8581 -15.9258 5.8936 -3.89108 0.239334
lowerback 6.35164 -0.185103 -1.40699
upperback -0.2581 -0.262017 2.36522
thorax -3.81438 -0.0796581 3.26688
lowerneck -15.2042 -3.33515 -10.0621
upperneck 28.404 -2.9762 3.38877
head 12.0991 -1.9935 2.55129
rclavicle -3.97569e-016 2.06736e-014
rhumerus -33.8455 -9.07399 -78.6127
rradius 35.1478
rwrist 2.45559
rhand -12.4414 14.4011
rfingers 7.12502
rthumb 13.6316 -15.1325
lclavicle -3.97569e-016 2.06736e-014
lhumerus -33.9561 12.5137 83.7481
lradius 28.6253
lwrist -3.31414
lhand -19.8041 21.3208
lfingers 7.12502
lthumb 6.52898 51.2001
rfemur -11.8189 5.29905 21.5854
rtibia 20.22
rfoot -8.88652 -8.95523
rtoes 2.8336
lfemur -13.0305 -3.42029 -21.4774
ltibia 20.8673
lfoot -10.2755 6.52832
ltoes 0.343108
77
root 0.940575 17.8582 -15.9202 5.90233 -3.8311 0.386083
lowerback 6.47387 -0.181882 -1.52808
upperback -0.386069 -0.268018 2.31068
thorax -4.01543 -0.0764891 3.28184
lowerneck -14.9943 -3.32661 -10.0858
upperneck 28.4006 -2.99535 3.43283
head 12.0571 -2.00072 2.57069
rclavicle -9.93923e-017 -8.74653e-015
rhumerus -34.1432 -9.07394 -78.5492
rradius 35.1431
rwrist 2.34497
rhand -12.3029 14.15
rfingers 7.12502
rthumb 13.7651 -15.3747
lclavicle -9.93923e-017 -8.74653e-015
lhumerus -34.0811 12.2204 83.9027
lradius 28.8398
lwrist -3.15234
lhand -19.7601 22.4401
lfingers 7.12502
lthumb 6.57145 52.3182
rfemur -11.8136 5.1685 21.4395
rtibia 20.2059
rfoot -8.89196 -8.94667
rtoes 2.68254
lfemur -12.9811 -3.37921 -21.6311
ltibia 20.7936
lfoot -10.3301 6.45707
ltoes 0.169906
78
root 0.937713 17.8611 -15.9156 5.96033 -3.69519 0.472508
lowerback 6.45012 -0.186712 -1.56289
upperback -0.409475 -0.278551 2.26594
thorax -4.02566 -0.0810313 3.25589
lowerneck -14.9804 -3.36238 -10.1162
upperneck 28.4155 -3.06256 3.50842
head 12.0672 -2.02472 2.59486
rclavicle -2.34566e-014 -2.70347e-014
rhumerus -34.1308 -9.23928 -78.4871
rradius 34.9825
rwrist 2.41801
rhand -12.0498 13.985
rfingers 7.12502
rthumb 14.009 -15.5229
lclavicle -2.34566e-014 -2.70347e-014
lhumerus -33.9236 12.1714 83.9696
lradius 28.8398
lwrist -3.45959
lhand -19.2409 22.897
lfingers 7.12502
lthumb 7.07264 52.7588
rfemur -11.8428 5.02175 21.355
rtibia 20.2008
rfoot -8.97174 -8.9579
rtoes 3.22216
lfemur -12.9932 -3.38332 -21.7151
ltibia 20.7177
lfoot -10.3093 6.32873
ltoes 0.235325
79
root 0.935099 17.8631 -15.9133 5.98199 -3.61176 0.465222
lowerback 6.45065 -0.175118 -1.51546
upperback -0.33187 -0.261173 2.24235
thorax -3.94675 -0.0756046 3.20198
lowerneck -15.258 -3.39011 -10.0704
upperneck 28.4892 -3.08723 3.52237
head 12.1545 -2.02796 2.58778
rclavicle -5.26779e-015 2.94201e-014
rhumerus -33.9647 -9.45514 -78.4554
rradius 34.8609
rwrist 2.52957
rhand -11.9255 13.9048
rfingers 7.12502
rthumb 14.1288 -15.5948
lclavicle -5.26779e-015 2.94201e-014
lhumerus -33.6791 11.9303 84.1482
lradius 29.0762
lwrist -3.44469
lhand -19.0189 23.7543
lfingers 7.12502
lthumb 7.28694 53.6088
rfemur -11.8393 5.06006 21.3701
rtibia 20.1928
rfoot -8.94126 -9.05742
rtoes 3.28766
lfemur -12.9817 -3.47505 -21.6912
ltibia 20.6643
lfoot -10.2769 6.33452
ltoes 0.382023
80
root 0.932686 17.8616 -15.9104 5.96235 -3.52877 0.406173
lowerback 6.53509 -0.145945 -1.41923
upperback -0.267363 -0.216122 2.23606
thorax -3.9306 -0.0561757 3.13687
lowerneck -15.5815 -3.44574 -10.0369
upperneck 28.6078 -3.14091 3.52591
head 12.2723 -2.04729 2.5746
rclavicle 9.93923e-016 -3.81667e-014
rhumerus -33.876 -9.79374 -78.3656
rradius 34.717
rwrist 2.70697
rhand -11.945 14.1958
rfingers 7.12502
rthumb 14.11 -15.3051
lclavicle 9.93923e-016 -3.81667e-014
lhumerus -33.4986 11.7385 84.2568
lradius 28.9486
lwrist -3.03548
lhand -19.4842 21.2751
lfingers 7.12502
lthumb 6.83773 51.1447
rfemur -11.7712 5.0898 21.4545
rtibia 20.151
rfoot -8.84389 -9.13705
rtoes 2.6956
lfemur -12.9451 -3.499 -21.6153
ltibia 20.6297
lfoot -10.2646 6.29381
ltoes 0.0287885
81
root 0.930956 17.8624 -15.9066 6.00353 -3.42342 0.344815
lowerback 6.4435 -0.138129 -1.31472
upperback -0.197196 -0.198654 2.22378
thorax -3.80764 -0.0520222 3.0617
lowerneck -15.7429 -3.4701 -9.9141
upperneck 28.5945 -3.17758 3.47792
head 12.2993 -2.05433 2.52833
rclavicle 8.64713e-015 1.82882e-014
rhumerus -33.6637 -10.2265 -78.2674
rradius 34.3347
rwrist 3.04567
rhand -12.1188 14.4136
rfingers 7.12502
rthumb 13.9425 -15.099
lclavicle 8.64713e-015 1.82882e-014
lhumerus -33.2746 11.7021 84.2527
lradius 28.7674
lwrist -3.22149
lhand -19.3441 19.2919
lfingers 7.12502
lthumb 6.97295 49.1571
rfemur -11.7506 4.99212 21.5419
rtibia 20.0861
rfoot -8.81113 -9.11008
rtoes 2.48625
lfemur -12.9807 -3.53405 -21.5267
ltibia 20.6255
lfoot -10.2094 6.17711
ltoes 0.267025
82
root 0.930095 17.8638 -15.8997 6.03559 -3.44897 0.354786
lowerback 6.3206 -0.109271 -1.31543
upperback -0.167647 -0.160783 2.2101
thorax -3.71025 -0.0348352 3.04284
lowerneck -15.6463 -3.47096 -9.91493
upperneck 28.5176 -3.19905 3.51289
head 12.2506 -2.05846 2.53825
rclavicle 2.28602e-015 3.02153e-014
rhumerus -33.5583 -10.4454 -78.1788
rradius 34.0215
rwrist 3.34474
rhand -12.3081 14.8289
rfingers 7.12502
rthumb 13.7601 -14.6961
lclavicle 2.28602e-015 3.02153e-014
lhumerus -33.1678 11.3062 84.5117
lradius 29.0074
lwrist -3.04292
lhand -19.6484 20.8365
lfingers 7.12502
lthumb 6.67925 50.7112
rfemur -11.7554 4.94707 21.5303
rtibia 20.0661
rfoot -8.89229 -9.08937
rtoes 2.52687
lfemur -12.9764 -3.54583 -21.541
ltibia 20.6137
lfoot -10.1875 6.18375
ltoes 0.510612
83
root 0.926705 17.8638 -15.8947 6.05068 -3.52105 0.35478
lowerback 6.3556 -0.0863318 -1.32789
upperback -0.214046 -0.131558 2.18712
thorax -3.77989 -0.01894 3.02392
lowerneck -15.5578 -3.46031 -9.90941
upperneck 28.5591 -3.21006 3.5572
head 12.25 -2.05893 2.55391
rclavicle 1.56046e-014 1.98785e-014
rhumerus -33.6541 -10.4171 -78.173
rradius 33.9621
rwrist 3.46057
rhand -12.2115 15.681
rfingers 7.12502
rthumb 13.8532 -13.8376
lclavicle 1.56046e-014 1.98785e-014
lhumerus -33.1332 11.2172 84.5407
lradius 28.9917
lwrist -3.10022
lhand -19.775 21.5748
lfingers 7.12502
lthumb 6.55699 51.4532
rfemur -11.7925 5.027 21.5363
rtibia 20.0948
rfoot -8.86466 -9.14428
rtoes 2.31657
lfemur -12.9436 -3.46835 -21.5464
ltibia 20.5574
lfoot -10.2145 6.22454
ltoes 0.461321
